<?xml version="1.0" encoding="UTF-8"?><!--SpellGraph(n=7,k=2) r1=50.000000, r2=179.000000, c=0.250000, gamma=3.518584--><svg width="511.999969" height="550.804199" xmlns="http://www.w3.org/2000/svg" xmlns:xlink="http://www.w3.org/1999/xlink"><line x1="322.342728" y1="262.393069" x2="302.050811" y2="304.529669" style="stroke:rgb(0,0,0);stroke-width:10.778947" /><line x1="302.050811" y1="304.529669" x2="256.455287" y2="314.936550" style="stroke:rgb(0,0,0);stroke-width:10.778947" /><line x1="256.455287" y1="314.936550" x2="219.890516" y2="285.777118" style="stroke:rgb(0,0,0);stroke-width:10.778947" /><line x1="219.890516" y1="285.777118" x2="219.890516" y2="239.009020" style="stroke:rgb(0,0,0);stroke-width:10.778947" /><line x1="219.890516" y1="239.009020" x2="256.455287" y2="209.849588" style="stroke:rgb(0,0,0);stroke-width:10.778947" /><line x1="256.455287" y1="209.849588" x2="302.050811" y2="220.256469" style="stroke:rgb(0,0,0);stroke-width:10.778947" /><line x1="302.050811" y1="220.256469" x2="322.342728" y2="262.393069" style="stroke:rgb(0,0,0);stroke-width:10.778947" /><line x1="486.032541" y1="367.176264" x2="322.342728" y2="262.393069" style="stroke:rgb(0,0,0);stroke-width:10.778947" /><line x1="486.032541" y1="367.176264" x2="302.050811" y2="304.529669" style="stroke:rgb(0,0,0);stroke-width:10.778947" /><line x1="322.186939" y1="497.838771" x2="302.050811" y2="304.529669" style="stroke:rgb(0,0,0);stroke-width:10.778947" /><line x1="322.186939" y1="497.838771" x2="256.455287" y2="314.936550" style="stroke:rgb(0,0,0);stroke-width:10.778947" /><line x1="117.874816" y1="451.205862" x2="256.455287" y2="314.936550" style="stroke:rgb(0,0,0);stroke-width:10.778947" /><line x1="117.874816" y1="451.205862" x2="219.890516" y2="285.777118" style="stroke:rgb(0,0,0);stroke-width:10.778947" /><line x1="26.947367" y1="262.393069" x2="219.890516" y2="285.777118" style="stroke:rgb(0,0,0);stroke-width:10.778947" /><line x1="26.947367" y1="262.393069" x2="219.890516" y2="239.009020" style="stroke:rgb(0,0,0);stroke-width:10.778947" /><line x1="117.874816" y1="73.580276" x2="219.890516" y2="239.009020" style="stroke:rgb(0,0,0);stroke-width:10.778947" /><line x1="117.874816" y1="73.580276" x2="256.455287" y2="209.849588" style="stroke:rgb(0,0,0);stroke-width:10.778947" /><line x1="322.186939" y1="26.947367" x2="256.455287" y2="209.849588" style="stroke:rgb(0,0,0);stroke-width:10.778947" /><line x1="322.186939" y1="26.947367" x2="302.050811" y2="220.256469" style="stroke:rgb(0,0,0);stroke-width:10.778947" /><line x1="486.032541" y1="157.609874" x2="302.050811" y2="220.256469" style="stroke:rgb(0,0,0);stroke-width:10.778947" /><line x1="486.032541" y1="157.609874" x2="322.342728" y2="262.393069" style="stroke:rgb(0,0,0);stroke-width:10.778947" /><line x1="297.852593" y1="390.774856" x2="322.342728" y2="262.393069" style="stroke:rgb(0,0,0);stroke-width:10.778947" /><line x1="297.852593" y1="390.774856" x2="486.032541" y2="367.176264" style="stroke:rgb(0,0,0);stroke-width:10.778947" /><line x1="387.154384" y1="205.337775" x2="302.050811" y2="304.529669" style="stroke:rgb(0,0,0);stroke-width:10.778947" /><line x1="387.154384" y1="205.337775" x2="486.032541" y2="367.176264" style="stroke:rgb(0,0,0);stroke-width:10.778947" /><line x1="186.408539" y1="365.427245" x2="302.050811" y2="304.529669" style="stroke:rgb(0,0,0);stroke-width:10.778947" /><line x1="186.408539" y1="365.427245" x2="322.186939" y2="497.838771" style="stroke:rgb(0,0,0);stroke-width:10.778947" /><line x1="387.067843" y1="319.628068" x2="256.455287" y2="314.936550" style="stroke:rgb(0,0,0);stroke-width:10.778947" /><line x1="387.067843" y1="319.628068" x2="322.186939" y2="497.838771" style="stroke:rgb(0,0,0);stroke-width:10.778947" /><line x1="136.741868" y1="262.492798" x2="256.455287" y2="314.936550" style="stroke:rgb(0,0,0);stroke-width:10.778947" /><line x1="136.741868" y1="262.492798" x2="117.874816" y2="451.205862" style="stroke:rgb(0,0,0);stroke-width:10.778947" /><line x1="297.658136" y1="390.819240" x2="219.890516" y2="285.777118" style="stroke:rgb(0,0,0);stroke-width:10.778947" /><line x1="297.658136" y1="390.819240" x2="117.874816" y2="451.205862" style="stroke:rgb(0,0,0);stroke-width:10.778947" /><line x1="186.252596" y1="159.483253" x2="219.890516" y2="285.777118" style="stroke:rgb(0,0,0);stroke-width:10.778947" /><line x1="186.252596" y1="159.483253" x2="26.947367" y2="262.393069" style="stroke:rgb(0,0,0);stroke-width:10.778947" /><line x1="186.252596" y1="365.302885" x2="219.890516" y2="239.009020" style="stroke:rgb(0,0,0);stroke-width:10.778947" /><line x1="186.252596" y1="365.302885" x2="26.947367" y2="262.393069" style="stroke:rgb(0,0,0);stroke-width:10.778947" /><line x1="297.658136" y1="133.966899" x2="219.890516" y2="239.009020" style="stroke:rgb(0,0,0);stroke-width:10.778947" /><line x1="297.658136" y1="133.966899" x2="117.874816" y2="73.580276" style="stroke:rgb(0,0,0);stroke-width:10.778947" /><line x1="136.741868" y1="262.293340" x2="256.455287" y2="209.849588" style="stroke:rgb(0,0,0);stroke-width:10.778947" /><line x1="136.741868" y1="262.293340" x2="117.874816" y2="73.580276" style="stroke:rgb(0,0,0);stroke-width:10.778947" /><line x1="387.067843" y1="205.158070" x2="256.455287" y2="209.849588" style="stroke:rgb(0,0,0);stroke-width:10.778947" /><line x1="387.067843" y1="205.158070" x2="322.186939" y2="26.947367" style="stroke:rgb(0,0,0);stroke-width:10.778947" /><line x1="186.408539" y1="159.358893" x2="302.050811" y2="220.256469" style="stroke:rgb(0,0,0);stroke-width:10.778947" /><line x1="186.408539" y1="159.358893" x2="322.186939" y2="26.947367" style="stroke:rgb(0,0,0);stroke-width:10.778947" /><line x1="387.154384" y1="319.448363" x2="302.050811" y2="220.256469" style="stroke:rgb(0,0,0);stroke-width:10.778947" /><line x1="387.154384" y1="319.448363" x2="486.032541" y2="157.609874" style="stroke:rgb(0,0,0);stroke-width:10.778947" /><line x1="297.852593" y1="134.011282" x2="322.342728" y2="262.393069" style="stroke:rgb(0,0,0);stroke-width:10.778947" /><line x1="297.852593" y1="134.011282" x2="486.032541" y2="157.609874" style="stroke:rgb(0,0,0);stroke-width:10.778947" /><circle cx="322.342728" cy="262.393069" r="2.479158" fill="rgb(27,233,82)" /><circle cx="302.050811" cy="304.529669" r="2.479158" fill="rgb(27,233,82)" /><circle cx="256.455287" cy="314.936550" r="2.479158" fill="rgb(27,233,82)" /><circle cx="219.890516" cy="285.777118" r="2.479158" fill="rgb(27,233,82)" /><circle cx="219.890516" cy="239.009020" r="2.479158" fill="rgb(27,233,82)" /><circle cx="256.455287" cy="209.849588" r="2.479158" fill="rgb(27,233,82)" /><circle cx="302.050811" cy="220.256469" r="2.479158" fill="rgb(27,233,82)" /><circle cx="486.032541" cy="367.176264" r="2.479158" fill="rgb(27,233,82)" /><circle cx="322.186939" cy="497.838771" r="2.479158" fill="rgb(27,233,82)" /><circle cx="117.874816" cy="451.205862" r="2.479158" fill="rgb(27,233,82)" /><circle cx="26.947367" cy="262.393069" r="2.479158" fill="rgb(27,233,82)" /><circle cx="117.874816" cy="73.580276" r="2.479158" fill="rgb(27,233,82)" /><circle cx="322.186939" cy="26.947367" r="2.479158" fill="rgb(27,233,82)" /><circle cx="486.032541" cy="157.609874" r="2.479158" fill="rgb(27,233,82)" /><circle cx="297.852593" cy="390.774856" r="2.479158" fill="rgb(27,233,82)" /><circle cx="387.154384" cy="205.337775" r="2.479158" fill="rgb(27,233,82)" /><circle cx="186.408539" cy="365.427245" r="2.479158" fill="rgb(27,233,82)" /><circle cx="387.067843" cy="319.628068" r="2.479158" fill="rgb(27,233,82)" /><circle cx="136.741868" cy="262.492798" r="2.479158" fill="rgb(27,233,82)" /><circle cx="297.658136" cy="390.819240" r="2.479158" fill="rgb(27,233,82)" /><circle cx="186.252596" cy="159.483253" r="2.479158" fill="rgb(27,233,82)" /><circle cx="186.252596" cy="365.302885" r="2.479158" fill="rgb(27,233,82)" /><circle cx="297.658136" cy="133.966899" r="2.479158" fill="rgb(27,233,82)" /><circle cx="136.741868" cy="262.293340" r="2.479158" fill="rgb(27,233,82)" /><circle cx="387.067843" cy="205.158070" r="2.479158" fill="rgb(27,233,82)" /><circle cx="186.408539" cy="159.358893" r="2.479158" fill="rgb(27,233,82)" /><circle cx="387.154384" cy="319.448363" r="2.479158" fill="rgb(27,233,82)" /><circle cx="297.852593" cy="134.011282" r="2.479158" fill="rgb(27,233,82)" /></svg>
